# xmcd CD database file
#
# Track frame offsets:
#	150
#	20795
#	37082
#	49233
#	81944
#	99446
#	126148
#	148470
#	159101
#	179757
#	194352
#	210140
#	229930
#	247571
#	260571
#	288594
#
# Disc length: 4056 seconds
#
# Revision: 5
# Processed by: cddbd v1.5.1PL0 Copyright (c) Steve Scherf et al.
# Submitted via: CDex 1.51
#
DISCID=e70fd610
DTITLE=Paolo Conte - Concerti
DYEAR=1985
DGENRE=
TTITLE0=Come di
TTITLE1=La ricostuzione del mocambo
TTITLE2=Via con me
TTITLE3=Alle prese con la verde milonga
TTITLE4=Parigi
TTITLE5=Diavolo rosso
TTITLE6=Hemingway
TTITLE7=Bartali
TTITLE8=Un gelato al limon
TTITLE9=Una giornata al mare
TTITLE10=Il nostro amico angiolino
TTITLE11=Onda su onda
TTITLE12=Sotto le stelle del jazz
TTITLE13=Azzuro
TTITLE14=Boogie
TTITLE15=Genova per noi
EXTD=YEAR: 1985
EXTT0=
EXTT1=
EXTT2=
EXTT3=
EXTT4=
EXTT5=
EXTT6=
EXTT7=
EXTT8=
EXTT9=
EXTT10=
EXTT11=
EXTT12=
EXTT13=
EXTT14=
EXTT15=
PLAYORDER=
